<svg xmlns="http://www.w3.org/2000/svg" width="100" height="100" viewBox="0 0 100 100">
    <g transform="translate(0 100) scale(.1 -.1)" fill="#E9A30C" stroke="none">
        <path d="M324 881c-81-36-133-131-153-275-15-108-14-151 5-167 14-11 15-27 10-99-6-75-4-89 14-118 25-40 71-69 124-77 23-4 57-14 76-23 46-22 154-22 200 0 19 9 59 22 88 28 87 20 132 82 132 184 0 22 5 66 12 98 10 50 9 68-7 134-14 57-16 77-7 83 9 5 7 18-7 47-11 22-23 52-26 67-9 34-63 89-111 112-58 28-292 32-350 6zm324-23c76-23 147-132 143-217-1-19 4-56 10-83 10-38 10-73 0-170-17-158-34-191-111-213l-25-7 21 23c31 34 44 63 44 96 0 16 9 46 20 68 12 23 20 59 20 87 0 26 5 48 10 48 18 0 11 15-12 25-15 6-27 24-33 50-15 54-45 103-70 109-11 3-41 6-66 6-55 0-142 25-159 45-18 22-30 18-30-7-1-21-2-22-14-5-15 19-36 23-36 6 0-6-8-8-19-4-21 6-35-22-47-90-8-49-28-90-52-107-16-11-18-21-12-80 4-37 15-79 24-92 9-14 16-39 16-56 0-35 13-64 43-98 11-12 15-22 9-22-24 0-64 21-87 46-23 25-25 35-25 126 0 68-4 104-13 112-19 19-3 188 24 261 23 62 67 118 110 141 32 16 135 19 144 4 3-5-1-10-9-10-19 0-20-9-6-44 12-32 26-33 35-5 5 14 2 25-6 30-11 7-10 9 4 9 9 0 17 6 17 14 0 25 63 27 138 4zm-217-198c12 0 11 7-2 32-10 19-9 20 7 13 60-25 101-36 164-41 66-7 70-8 96-45 24-36 26-45 22-111-5-82-29-137-79-186-31-30-34-31-51-15-10 9-18 22-18 29 0 7-4 16-10 19-5 3-7 0-4-8 3-10-5-16-25-20-44-9-93 2-87 20 3 8 1 11-4 8-6-3-10-12-10-19 0-7-8-20-18-29-17-16-20-15-51 15-69 67-95 160-68 244 8 27 18 67 22 89l7 39 17-23 18-24 7 33 6 33 26-27c15-14 31-26 35-26zm-161-222c-1-61-3-78-11-66-17 30-23 116-9 133 7 8 14 15 16 15 2 0 4-37 4-82zm487 5c-10-95-26-98-27-4 0 76 1 82 16 70 13-10 15-25 11-66zm-404-132c34-32 36-33 58-17 16 11 45 16 89 16 44 0 73-5 89-16 22-16 24-15 58 17 19 19 43 50 53 69l19 35 1-71c0-60-4-76-28-115-86-135-298-135-384 0-24 39-28 55-28 115l1 71 19-35c10-19 34-50 53-69z"/>
        <path d="M408 638c9-9 44-13 112-13 62 0 93 3 83 9-8 4-46 5-82 2-42-4-79-3-97 4-24 9-27 9-16-2zM398 598c13-16 95-30 86-16-3 5-16 8-30 8-14 0-35 5-47 12-19 10-20 9-9-4zM327 559c-24-14-11-32 14-18 11 5 29 7 39 4 25-8 26-35 3-35-16 0-16-1 1-17 16-17 18-17 36 5 10 12 23 22 29 22 24 0 9 16-32 33-48 19-65 21-90 6zM578 552c-45-20-50-36-8-27 19 4 30 3 30-4 0-6-8-11-17-11-16 0-16-1-1-17 14-14 20-14 33-3 11 9 14 22 10 37-6 25 5 29 35 13 12-6 21-7 25-1 7 12-27 31-52 30-10 0-35-8-55-17zM426 247c-15-11-3-13 74-13 77 0 89 2 74 13-10 7-43 13-74 13-31 0-64-6-74-13z"/>
    </g>
</svg>